<?xml version="1.0" standalone="no"?>
<!DOCTYPE svg PUBLIC "-//W3C//DTD SVG 20010904//EN"
 "http://www.w3.org/TR/2001/REC-SVG-20010904/DTD/svg10.dtd">
<svg version="1.0" xmlns="http://www.w3.org/2000/svg"
 width="172.000000pt" height="172.000000pt" viewBox="0 0 172.000000 172.000000"
 preserveAspectRatio="xMidYMid meet">
<metadata>
Created by potrace 1.11, written by Peter Selinger 2001-2013
</metadata>
<g transform="translate(0.000000,172.000000) scale(0.100000,-0.100000)"
fill="#000000" stroke="none">
<path d="M1338 1695 c-2 -2 -21 -4 -43 -6 -127 -9 -223 -126 -229 -281 -5
-120 18 -198 76 -258 86 -90 259 -99 368 -18 32 23 74 80 84 113 5 19 1 20
-67 19 -89 -2 -87 -2 -87 -15 0 -9 -30 -42 -44 -50 -1 0 -19 -2 -41 -5 -75
-10 -120 26 -135 106 -7 36 -5 40 14 41 11 1 100 2 196 3 l175 1 1 45 c2 109
-49 214 -126 262 -38 23 -133 52 -142 43z m37 -129 c38 -16 64 -50 69 -92 l4
-29 -115 0 -114 0 6 34 c9 47 34 79 70 90 42 13 42 13 80 -3z"/>
<path d="M13 1675 c-3 -9 67 -266 138 -507 l20 -68 77 0 78 0 32 143 c17 78
37 166 43 195 6 28 15 52 21 52 5 0 8 -6 5 -12 -2 -7 2 -33 8 -58 7 -25 26
-107 41 -183 l29 -138 79 3 80 3 58 205 c32 113 69 243 82 290 l23 85 -75 -1
c-45 -1 -77 -6 -82 -13 -4 -7 -24 -95 -45 -197 -21 -101 -40 -182 -43 -180 -2
3 -13 47 -24 98 -11 51 -21 100 -23 108 -1 8 -11 52 -21 98 -14 65 -21 82 -36
83 -62 4 -121 3 -128 -1 -7 -5 -71 -274 -87 -365 -3 -16 -6 -31 -7 -32 -1 -1
-17 62 -35 140 -18 78 -34 147 -35 152 -2 6 -6 31 -11 58 -4 26 -12 47 -19 48
-73 5 -139 2 -143 -6z"/>
<path d="M1300 908 c-19 -31 -35 -93 -34 -129 1 -14 -4 -15 -40 -4 -23 7 -46
10 -52 8 -13 -4 -7 -84 11 -135 7 -21 11 -38 10 -38 -2 0 -25 18 -51 40 -53
44 -87 49 -92 14 -3 -20 -8 -22 -59 -17 -54 5 -55 5 -48 -18 4 -13 22 -46 40
-73 36 -52 36 -66 4 -66 -36 0 -22 -38 27 -73 26 -17 53 -36 60 -42 11 -8 6
-19 -26 -57 -40 -46 -40 -47 -20 -58 65 -35 198 -47 266 -25 20 6 21 4 13 -48
-9 -70 -17 -96 -40 -128 -10 -14 -16 -29 -12 -33 15 -15 44 -4 57 22 16 32 36
121 36 161 l0 28 52 -9 c58 -11 123 -6 186 13 60 18 67 30 34 65 -58 62 -58
59 0 98 29 19 59 44 66 56 11 18 10 21 -13 30 -15 6 -31 10 -36 10 -6 0 -3 7
6 17 23 22 60 83 70 112 7 23 6 24 -48 19 -54 -4 -55 -4 -61 24 l-6 29 -38
-20 c-21 -11 -52 -34 -70 -52 l-32 -32 11 34 c19 59 26 108 21 134 -4 21 -8
24 -31 19 -14 -4 -34 -11 -43 -15 -23 -12 -23 -13 -26 34 -3 45 -39 129 -59
135 -7 2 -22 -11 -33 -30z"/>
<path d="M149 747 c-33 -18 -51 -37 -71 -76 -60 -115 -25 -206 144 -374 62
-62 129 -127 149 -145 l36 -33 145 143 c173 171 210 229 203 328 -4 74 -40
131 -99 160 -73 35 -176 21 -231 -30 -21 -20 -22 -20 -42 -1 -60 56 -158 68
-234 28z"/>
</g>
</svg>
