<svg width="175" height="17" viewBox="0 0 175 17" fill="none" xmlns="http://www.w3.org/2000/svg">
<path d="M3.984 5.024C4.448 3.632 5.184 2.936 6.192 2.936C6.992 2.936 7.552 3.416 7.872 4.376C8.16 5.224 8.536 7.304 9 10.616C9.496 10.552 9.776 10.52 9.84 10.52C10.32 10.52 10.56 10.76 10.56 11.24C10.56 11.432 10.488 11.592 10.344 11.72C10.2 11.848 10.032 11.928 9.84 11.96L9.216 12.032C9.376 13.36 9.456 14.352 9.456 15.008C9.456 15.664 9.288 16.16 8.952 16.496C8.616 16.832 8.224 17 7.776 17C7.344 17 6.928 16.816 6.528 16.448C6.144 16.08 5.84 15.656 5.616 15.176C5.136 14.136 4.896 13.36 4.896 12.848C4.896 11.872 5.784 11.2 7.56 10.832C7.064 7.44 6.736 5.52 6.576 5.072C6.432 4.608 6.304 4.376 6.192 4.376C5.872 4.376 5.592 4.736 5.352 5.456C4.616 7.664 4.128 9.248 3.888 10.208C3.648 11.168 3.392 12.216 3.12 13.352C2.848 14.488 2.64 15.328 2.496 15.872C2.368 16.4 2.248 16.72 2.136 16.832C2.04 16.944 1.888 17 1.68 17C1.2 17 0.96 16.76 0.96 16.28L1.008 15.992C1.216 15.16 1.456 14.176 1.728 13.04C2.016 11.904 2.224 11.064 2.352 10.52C2.736 9.016 3.28 7.184 3.984 5.024ZM7.776 12.272C6.816 12.48 6.336 12.712 6.336 12.968C6.336 13.256 6.52 13.76 6.888 14.48C7.272 15.2 7.568 15.56 7.776 15.56C7.936 15.56 8.016 15.296 8.016 14.768C8.016 14.224 7.936 13.392 7.776 12.272ZM15.3233 4.16C15.0353 3.76 14.8913 3.352 14.8913 2.936C14.8913 2.52 15.0273 2.16 15.2993 1.856C15.5873 1.552 15.9393 1.344 16.3553 1.232C16.7873 1.12 17.2833 1.016 17.8433 0.92C18.4033 0.823999 18.8913 0.751999 19.3073 0.704C20.3953 0.575999 20.9713 0.511999 21.0353 0.511999C21.1153 0.495999 21.2273 0.487999 21.3713 0.487999C21.8513 0.487999 22.0913 0.727999 22.0913 1.208C22.0913 1.336 22.0273 1.48 21.8993 1.64C21.7713 1.8 21.6433 1.888 21.5153 1.904C21.3873 1.92 21.1073 1.96 20.6753 2.024C20.2593 2.072 19.8273 2.128 19.3793 2.192C18.9313 2.24 18.4673 2.304 17.9873 2.384C16.8833 2.576 16.3313 2.76 16.3313 2.936C16.3313 3.064 16.6193 3.48 17.1953 4.184C17.7713 4.872 18.4433 5.68 19.2113 6.608C19.9953 7.536 20.5553 8.28 20.8913 8.84C21.2433 9.384 21.4193 10 21.4193 10.688C21.4193 11.36 21.1713 12.12 20.6753 12.968C20.1953 13.8 19.6033 14.504 18.8993 15.08C18.2113 15.64 17.4993 16.104 16.7633 16.472C16.0273 16.824 15.3473 17 14.7233 17C14.1153 17 13.5873 16.8 13.1393 16.4C12.7073 16 12.4913 15.48 12.4913 14.84C12.4913 13.128 13.0353 11.752 14.1233 10.712C15.2273 9.656 16.3793 9.128 17.5793 9.128C17.8033 9.128 18.1553 9.168 18.6353 9.248C19.1153 9.328 19.4433 9.416 19.6193 9.512C19.2993 8.984 18.5793 8.064 17.4593 6.752C16.3393 5.424 15.6273 4.56 15.3233 4.16ZM19.9073 11.144C19.6513 11.016 19.2673 10.888 18.7553 10.76C18.2433 10.632 17.8513 10.568 17.5793 10.568C16.7953 10.568 15.9873 10.952 15.1553 11.72C14.3393 12.472 13.9313 13.512 13.9313 14.84C13.9313 15.064 14.0273 15.24 14.2193 15.368C14.4113 15.496 14.6673 15.56 14.9873 15.56C15.3073 15.56 15.7873 15.392 16.4273 15.056C17.0833 14.72 17.7633 14.2 18.4673 13.496C19.1713 12.776 19.6513 11.992 19.9073 11.144ZM27.3825 10.52L27.6225 11.48C27.6225 11.96 27.3825 12.2 26.9025 12.2C26.6945 12.2 26.4785 12.032 26.2545 11.696C26.0465 11.36 25.9425 10.968 25.9425 10.52C25.9425 9.736 26.4225 9.152 27.3825 8.768C28.0545 8.496 28.7425 8.36 29.4465 8.36C30.1665 8.36 30.7185 8.56 31.1025 8.96C31.5025 9.344 31.7025 9.928 31.7025 10.712C31.7025 11.48 31.7745 12.272 31.9185 13.088C32.0625 13.888 32.2305 14.504 32.4225 14.936C32.6145 15.352 32.7905 15.56 32.9505 15.56C33.3345 15.56 33.8385 15.448 34.4625 15.224C35.1025 14.984 35.6865 14.6 36.2145 14.072C36.2945 13.992 36.5505 13.728 36.9825 13.28C37.4145 12.832 37.7505 12.496 37.9905 12.272C38.2145 12.048 38.5185 11.776 38.9025 11.456C39.6385 10.832 40.2625 10.52 40.7745 10.52C41.3025 10.52 41.7345 10.688 42.0705 11.024C42.4065 11.344 42.6545 11.736 42.8145 12.2C42.9585 12.68 43.0945 13.16 43.2225 13.64C43.5105 14.776 43.8305 15.336 44.1825 15.32C44.4865 15.32 44.8785 15.24 45.3585 15.08C45.8385 14.92 46.1025 14.84 46.1505 14.84C46.6305 14.84 46.8705 15.08 46.8705 15.56C46.8705 15.912 46.6305 16.168 46.1505 16.328C45.2865 16.616 44.6145 16.76 44.1345 16.76C43.6705 16.76 43.2705 16.6 42.9345 16.28C42.5985 15.944 42.3505 15.544 42.1905 15.08C42.0465 14.6 41.9105 14.12 41.7825 13.64C41.4945 12.52 41.1825 11.96 40.8465 11.96C40.5105 11.96 39.3025 13 37.2225 15.08C36.6465 15.656 35.9585 16.12 35.1585 16.472C34.3585 16.824 33.6225 17 32.9505 17C32.1185 17 31.4625 16.392 30.9825 15.176C30.5025 13.944 30.2625 12.392 30.2625 10.52C30.2625 10.04 30.0305 9.8 29.5665 9.8C29.1985 9.8 28.7425 9.872 28.1985 10.016C27.6545 10.144 27.3825 10.312 27.3825 10.52ZM41.5425 5.096C41.7985 5.096 42.0625 5.216 42.3345 5.456C42.6065 5.68 42.7425 5.92 42.7425 6.176C42.7425 6.416 42.6385 6.6 42.4305 6.728C42.2385 6.856 42.0145 6.92 41.7585 6.92C41.5025 6.92 41.2785 6.808 41.0865 6.584C40.9105 6.344 40.8225 6.088 40.8225 5.816C40.8225 5.336 41.0625 5.096 41.5425 5.096ZM56.9016 15.032C56.9016 15.032 57.1576 14.968 57.6696 14.84C58.1496 14.84 58.3896 15.08 58.3896 15.56C58.3896 15.912 58.1496 16.168 57.6696 16.328C57.3816 16.424 57.0936 16.472 56.8056 16.472C56.5336 16.472 56.2696 16.408 56.0136 16.28C55.7576 16.152 55.5576 15.96 55.4136 15.704C55.1736 15.288 54.9976 14.84 54.8856 14.36L54.7896 13.952C54.5176 14.416 53.8536 14.96 52.7976 15.584C51.7576 16.208 50.6456 16.52 49.4616 16.52C48.8216 16.52 48.2616 16.28 47.7816 15.8C47.3016 15.32 47.0616 14.76 47.0616 14.12C47.0616 12.568 47.7016 11.224 48.9816 10.088C50.2616 8.936 51.5576 8.36 52.8696 8.36C53.5896 8.36 54.2056 8.496 54.7176 8.768C55.2456 9.024 55.5096 9.288 55.5096 9.56C55.5096 10.04 55.2696 10.28 54.7896 10.28C54.6936 10.28 54.4616 10.2 54.0936 10.04C53.7256 9.88 53.3176 9.8 52.8696 9.8C52.0056 9.8 51.0616 10.224 50.0376 11.072C49.0136 11.904 48.5016 12.92 48.5016 14.12C48.5016 14.36 48.5976 14.584 48.7896 14.792C48.9976 14.984 49.2216 15.08 49.4616 15.08C50.4056 15.08 51.2856 14.832 52.1016 14.336C52.9176 13.824 53.4376 13.408 53.6616 13.088C53.8856 12.752 54.0696 12.448 54.2136 12.176C54.3576 11.904 54.4616 11.728 54.5256 11.648C54.6056 11.552 54.7656 11.504 55.0056 11.504C55.2456 11.504 55.4296 11.592 55.5576 11.768C55.6856 11.944 55.8056 12.224 55.9176 12.608C56.0296 12.976 56.1416 13.392 56.2536 13.856C56.3656 14.32 56.4616 14.632 56.5416 14.792C56.6376 14.952 56.7576 15.032 56.9016 15.032ZM75.8728 12.2L75.6328 13.424C75.6328 14.048 75.8968 14.56 76.4248 14.96C76.9688 15.36 77.6168 15.56 78.3688 15.56C79.1368 15.56 79.9128 15.304 80.6968 14.792C81.4808 14.264 81.8728 13.616 81.8728 12.848C81.8728 12.08 81.6088 11.464 81.0808 11C80.5528 10.52 79.9368 10.28 79.2328 10.28C78.8488 10.28 78.4568 10.4 78.0568 10.64C77.6728 10.88 77.4248 11 77.3128 11C76.8328 11 76.5928 10.76 76.5928 10.28C76.5928 9.976 76.8648 9.664 77.4088 9.344C77.9688 9.008 78.5768 8.84 79.2328 8.84C80.3368 8.84 81.2888 9.216 82.0888 9.968C82.9048 10.72 83.3128 11.688 83.3128 12.872C83.3128 14.056 82.7848 15.04 81.7288 15.824C80.6888 16.608 79.6088 17 78.4888 17C77.3688 17 76.4168 16.72 75.6328 16.16C74.8648 15.6 74.4008 14.896 74.2408 14.048C73.4728 14.736 72.5768 15.08 71.5528 15.08C70.9608 15.08 70.4648 14.832 70.0648 14.336C69.6808 13.84 69.4168 13.288 69.2728 12.68C69.1448 12.072 69.0088 11.52 68.8648 11.024C68.7368 10.528 68.5928 10.28 68.4328 10.28C68.3048 10.28 68.2008 10.352 68.1208 10.496C68.0408 10.64 67.9768 10.76 67.9288 10.856C67.8968 10.952 67.8568 11.088 67.8088 11.264C67.7768 11.424 67.7448 11.568 67.7128 11.696C67.6808 11.808 67.6408 11.976 67.5928 12.2C67.2568 13.72 66.8328 14.704 66.3208 15.152C65.8248 15.584 65.3288 15.8 64.8328 15.8C64.0808 15.8 63.5288 15.472 63.1768 14.816C62.8408 14.144 62.6728 13.272 62.6728 12.2C62.6728 10.6 62.4328 9.8 61.9528 9.8C61.5688 9.8 61.1128 10.472 60.5848 11.816C60.0568 13.16 59.7928 14.408 59.7928 15.56C59.7928 15.768 59.7208 15.944 59.5768 16.088C59.4488 16.216 59.2808 16.28 59.0728 16.28C58.5928 16.28 58.3528 16.04 58.3528 15.56C58.3528 14.552 58.5128 13.496 58.8328 12.392C59.1688 11.288 59.6168 10.344 60.1768 9.56C60.7528 8.76 61.3448 8.36 61.9528 8.36C63.3928 8.36 64.1128 9.64 64.1128 12.2C64.1128 13.64 64.3528 14.36 64.8328 14.36C65.3128 14.36 65.7288 13.664 66.0808 12.272C66.4328 10.88 66.7208 10 66.9448 9.632C67.2808 9.104 67.7448 8.84 68.3368 8.84C68.9448 8.84 69.4168 9.088 69.7528 9.584C70.0888 10.08 70.3048 10.632 70.4008 11.24C70.6728 12.84 71.0568 13.64 71.5528 13.64C72.1928 13.64 72.7608 13.416 73.2568 12.968L74.6728 11.696C74.8488 11.552 75.0088 11.48 75.1528 11.48C75.6328 11.48 75.8728 11.72 75.8728 12.2ZM103.925 9.32L103.301 4.376C103.301 3.896 103.525 3.656 103.973 3.656C104.421 3.656 104.677 3.896 104.741 4.376C105.109 6.952 105.325 8.544 105.389 9.152C105.469 9.744 105.597 10.472 105.773 11.336C106.173 13.288 106.373 14.696 106.373 15.56C106.373 16.04 106.133 16.28 105.653 16.28C105.173 16.28 104.933 16.04 104.933 15.56C104.933 14.824 104.869 14.168 104.741 13.592C104.629 13 104.525 12.48 104.429 12.032C104.349 11.584 104.293 11.296 104.261 11.168C103.493 11.76 102.285 12.056 100.637 12.056C100.781 13.32 100.853 14.248 100.853 14.84C100.853 16.28 100.213 17 98.9325 17C98.1485 17 97.5885 16.52 97.2525 15.56C96.9325 14.696 96.7725 13.768 96.7725 12.776C96.7725 12.072 97.0285 11.536 97.5405 11.168C98.0685 10.8 98.5725 10.616 99.0525 10.616C98.6525 7.112 98.4525 4.792 98.4525 3.656C98.4525 3.176 98.6925 2.936 99.1725 2.936C99.6525 2.936 99.8925 3.192 99.8925 3.704C99.8925 4.216 99.9245 4.872 99.9885 5.672C100.053 6.616 100.181 7.912 100.373 9.56L100.517 10.616C101.541 10.616 102.365 10.488 102.989 10.232C103.613 9.976 103.925 9.672 103.925 9.32ZM98.2125 12.92C98.2125 13.24 98.2765 13.76 98.4045 14.48C98.5485 15.2 98.7245 15.56 98.9325 15.56C99.1565 15.56 99.2925 15.512 99.3405 15.416C99.3885 15.32 99.4125 15.128 99.4125 14.84L99.1725 12.056C98.9165 12.056 98.6925 12.12 98.5005 12.248C98.3085 12.376 98.2125 12.6 98.2125 12.92ZM118.144 15.032C118.144 15.032 118.4 14.968 118.912 14.84C119.392 14.84 119.632 15.08 119.632 15.56C119.632 15.912 119.392 16.168 118.912 16.328C118.624 16.424 118.336 16.472 118.048 16.472C117.776 16.472 117.512 16.408 117.256 16.28C117 16.152 116.8 15.96 116.656 15.704C116.416 15.288 116.24 14.84 116.128 14.36L116.032 13.952C115.76 14.416 115.096 14.96 114.04 15.584C113 16.208 111.888 16.52 110.704 16.52C110.064 16.52 109.504 16.28 109.024 15.8C108.544 15.32 108.304 14.76 108.304 14.12C108.304 12.568 108.944 11.224 110.224 10.088C111.504 8.936 112.8 8.36 114.112 8.36C114.832 8.36 115.448 8.496 115.96 8.768C116.488 9.024 116.752 9.288 116.752 9.56C116.752 10.04 116.512 10.28 116.032 10.28C115.936 10.28 115.704 10.2 115.336 10.04C114.968 9.88 114.56 9.8 114.112 9.8C113.248 9.8 112.304 10.224 111.28 11.072C110.256 11.904 109.744 12.92 109.744 14.12C109.744 14.36 109.84 14.584 110.032 14.792C110.24 14.984 110.464 15.08 110.704 15.08C111.648 15.08 112.528 14.832 113.344 14.336C114.16 13.824 114.68 13.408 114.904 13.088C115.128 12.752 115.312 12.448 115.456 12.176C115.6 11.904 115.704 11.728 115.768 11.648C115.848 11.552 116.008 11.504 116.248 11.504C116.488 11.504 116.672 11.592 116.8 11.768C116.928 11.944 117.048 12.224 117.16 12.608C117.272 12.976 117.384 13.392 117.496 13.856C117.608 14.32 117.704 14.632 117.784 14.792C117.88 14.952 118 15.032 118.144 15.032ZM120.483 13.784C120.515 13.736 120.587 13.392 120.699 12.752C120.827 12.112 120.971 11.488 121.131 10.88C121.307 10.256 121.611 9.68 122.043 9.152C122.491 8.624 123.027 8.36 123.651 8.36C124.867 8.36 125.891 8.68 126.723 9.32C127.571 9.944 127.995 10.752 127.995 11.744C127.995 12.736 128.131 13.624 128.403 14.408C128.675 15.176 129.035 15.56 129.483 15.56C129.787 15.56 130.163 15.464 130.611 15.272C131.331 14.984 131.755 14.84 131.883 14.84C132.363 14.84 132.603 15.08 132.603 15.56C132.603 15.912 132.363 16.168 131.883 16.328C130.987 16.776 130.179 17 129.459 17C128.755 17 128.171 16.704 127.707 16.112C127.243 15.504 126.931 14.832 126.771 14.096C126.627 13.36 126.555 12.568 126.555 11.72C126.555 11.16 126.283 10.704 125.739 10.352C125.195 9.984 124.507 9.8 123.675 9.8C123.003 9.8 122.475 10.872 122.091 13.016C121.931 13.848 121.819 14.328 121.755 14.456C121.483 15.016 120.739 15.56 119.523 16.088C119.235 16.216 119.003 16.28 118.827 16.28C118.347 16.28 118.107 16.04 118.107 15.56C118.107 15.256 118.347 15.008 118.827 14.816C119.771 14.432 120.323 14.088 120.483 13.784ZM135.628 4.16C135.34 3.76 135.196 3.352 135.196 2.936C135.196 2.52 135.332 2.16 135.604 1.856C135.892 1.552 136.244 1.344 136.66 1.232C137.092 1.12 137.588 1.016 138.148 0.92C138.708 0.823999 139.196 0.751999 139.612 0.704C140.7 0.575999 141.276 0.511999 141.34 0.511999C141.42 0.495999 141.532 0.487999 141.676 0.487999C142.156 0.487999 142.396 0.727999 142.396 1.208C142.396 1.336 142.332 1.48 142.204 1.64C142.076 1.8 141.948 1.888 141.82 1.904C141.692 1.92 141.412 1.96 140.98 2.024C140.564 2.072 140.132 2.128 139.684 2.192C139.236 2.24 138.772 2.304 138.292 2.384C137.188 2.576 136.636 2.76 136.636 2.936C136.636 3.064 136.924 3.48 137.5 4.184C138.076 4.872 138.748 5.68 139.516 6.608C140.3 7.536 140.86 8.28 141.196 8.84C141.548 9.384 141.724 10 141.724 10.688C141.724 11.36 141.476 12.12 140.98 12.968C140.5 13.8 139.908 14.504 139.204 15.08C138.516 15.64 137.804 16.104 137.068 16.472C136.332 16.824 135.652 17 135.028 17C134.42 17 133.892 16.8 133.444 16.4C133.012 16 132.796 15.48 132.796 14.84C132.796 13.128 133.34 11.752 134.428 10.712C135.532 9.656 136.684 9.128 137.884 9.128C138.108 9.128 138.46 9.168 138.94 9.248C139.42 9.328 139.748 9.416 139.924 9.512C139.604 8.984 138.884 8.064 137.764 6.752C136.644 5.424 135.932 4.56 135.628 4.16ZM140.212 11.144C139.956 11.016 139.572 10.888 139.06 10.76C138.548 10.632 138.156 10.568 137.884 10.568C137.1 10.568 136.292 10.952 135.46 11.72C134.644 12.472 134.236 13.512 134.236 14.84C134.236 15.064 134.332 15.24 134.524 15.368C134.716 15.496 134.972 15.56 135.292 15.56C135.612 15.56 136.092 15.392 136.732 15.056C137.388 14.72 138.068 14.2 138.772 13.496C139.476 12.776 139.956 11.992 140.212 11.144ZM145.791 7.736C145.775 7.512 145.767 7.16 145.767 6.68C145.767 4.952 145.927 3.128 146.247 1.208C146.327 0.727999 146.567 0.487999 146.967 0.487999C147.447 0.487999 147.687 0.719999 147.687 1.184C147.687 1.264 147.671 1.4 147.639 1.592C147.351 3.32 147.207 5.016 147.207 6.68V7.472C149.303 7.104 150.823 6.92 151.767 6.92C152.247 6.92 152.487 7.16 152.487 7.64C152.487 8.12 152.247 8.36 151.767 8.36C150.839 8.36 149.343 8.544 147.279 8.912C147.615 13.344 149.031 15.56 151.527 15.56C152.087 15.56 152.783 15.44 153.615 15.2C154.447 14.96 154.887 14.84 154.935 14.84C155.415 14.84 155.655 15.08 155.655 15.56C155.655 15.912 155.415 16.168 154.935 16.328C153.591 16.776 152.455 17 151.527 17C150.039 17 148.783 16.392 147.759 15.176C146.735 13.96 146.103 11.96 145.863 9.176L145.311 9.296C145.167 9.312 145.079 9.32 145.047 9.32C144.567 9.32 144.327 9.08 144.327 8.6C144.327 8.216 144.567 7.976 145.047 7.88C145.351 7.816 145.599 7.768 145.791 7.736ZM162.578 16.76C161.73 16.76 161.074 16.376 160.61 15.608C160.162 14.84 159.938 13.96 159.938 12.968C159.938 12.456 160.178 12.2 160.658 12.2C161.138 12.2 161.378 12.488 161.378 13.064C161.378 13.64 161.49 14.16 161.714 14.624C161.938 15.088 162.21 15.32 162.53 15.32C162.866 15.32 163.274 15.24 163.754 15.08C164.234 14.92 164.498 14.84 164.546 14.84C165.026 14.84 165.266 15.08 165.266 15.56C165.266 15.912 165.026 16.168 164.546 16.328C163.682 16.616 163.026 16.76 162.578 16.76ZM157.778 1.208L157.754 1.616C157.562 3.536 157.434 4.96 157.37 5.888C157.322 6.816 157.298 7.936 157.298 9.248C157.298 10.544 157.338 11.392 157.418 11.792C157.802 10.944 158.458 10.16 159.386 9.44C160.314 8.72 161.458 8.36 162.818 8.36C163.298 8.36 163.538 8.6 163.538 9.08C163.538 9.56 163.298 9.8 162.818 9.8C162.162 9.8 161.554 9.92 160.994 10.16C160.45 10.4 160.018 10.696 159.698 11.048C159.09 11.72 158.706 12.32 158.546 12.848C158.514 12.944 158.458 13.152 158.378 13.472C158.314 13.776 158.266 13.976 158.234 14.072C158.218 14.184 158.162 14.328 158.066 14.504C157.906 14.808 157.65 14.96 157.298 14.96C156.962 14.96 156.634 14.432 156.314 13.376C156.01 12.304 155.858 11.352 155.858 10.52C155.858 9.688 155.858 8.944 155.858 8.288C155.874 7.616 155.882 7.088 155.882 6.704C155.898 6.304 155.93 5.816 155.978 5.24C156.026 4.664 156.05 4.288 156.05 4.112C156.082 3.36 156.178 2.384 156.338 1.184C156.386 0.719999 156.626 0.487999 157.058 0.487999C157.538 0.487999 157.778 0.727999 157.778 1.208ZM166.092 15.608C166.076 15.608 165.956 15.672 165.732 15.8C165.156 16.12 164.732 16.28 164.46 16.28C163.98 16.28 163.74 16.04 163.74 15.56C163.74 15.256 163.98 15.008 164.46 14.816C164.54 14.784 164.732 14.688 165.036 14.528C165.34 14.368 165.516 14.272 165.564 14.24C165.5 14.096 165.468 13.88 165.468 13.592C165.468 12.152 165.972 10.92 166.98 9.896C167.988 8.872 168.908 8.36 169.74 8.36C170.572 8.36 171.228 8.56 171.708 8.96C172.188 9.344 172.428 9.816 172.428 10.376C172.428 10.92 172.3 11.392 172.044 11.792C171.788 12.192 171.388 12.584 170.844 12.968C170.092 13.512 168.996 14.144 167.556 14.864C168.196 15.328 169.084 15.56 170.22 15.56C171.356 15.56 172.476 15.376 173.58 15.008C173.916 14.896 174.108 14.84 174.156 14.84C174.636 14.84 174.876 15.08 174.876 15.56C174.876 15.912 174.636 16.168 174.156 16.328C172.812 16.776 171.516 17 170.268 17C168.492 17 167.1 16.536 166.092 15.608ZM166.908 13.592C169.628 12.232 170.988 11.208 170.988 10.52C170.988 10.04 170.588 9.8 169.788 9.8C169.308 9.8 168.708 10.184 167.988 10.952C167.268 11.704 166.908 12.584 166.908 13.592Z" fill="#333333"/>
</svg>
